<?xml version="1.0" encoding="UTF-8"?>
<svg width="640px" height="150px" viewBox="0 0 640 150" version="1.1" xmlns="http://www.w3.org/2000/svg" xmlns:xlink="http://www.w3.org/1999/xlink">
    <!-- Generator: Sketch 47.1 (45422) - http://www.bohemiancoding.com/sketch -->
    <defs></defs>
    <g id="Page-1" stroke="none" stroke-width="1" fill="none" fill-rule="evenodd">
        <g id="superluminar">
            <rect id="Rectangle" fill="white" x="0" y="0" width="640" height="150"></rect>
            <path d="M79.45,60.4 C77.849992,58.733325 75.650014,57.466671 72.85,56.6 C70.049986,55.733329 67.250014,55.3 64.45,55.3 C59.916644,55.3 55.950017,56.799985 52.55,59.8 C49.149983,62.800015 47.083337,66.599977 46.35,71.2 C46.216666,72.066671 46.15,72.933329 46.15,73.8 C46.15,76.46668 46.849993,78.566659 48.25,80.1 C49.650007,81.633341 51.616654,82.966661 54.15,84.1 C54.683336,84.366668 55.483328,84.699998 56.55,85.1 C58.683344,86.033338 60.2666615,86.866663 61.3,87.6 C62.3333385,88.333337 62.85,89.36666 62.85,90.7 C62.85,90.833334 62.816667,90.966666 62.75,91.1 L62.75,91.5 C62.483332,93.033341 61.7333395,94.299995 60.5,95.3 C59.2666605,96.300005 57.883341,96.8 56.35,96.8 C54.416657,96.8 52.6666745,96.266672 51.1,95.2 C49.5333255,94.133328 48.116673,92.766675 46.85,91.1 L39.15,99.4 C40.816675,102.000013 43.0666525,104.01666 45.9,105.45 C48.7333475,106.883341 51.81665,107.6 55.15,107.6 C60.48336,107.6 65.249979,106.016683 69.45,102.85 C73.650021,99.6833175 76.149996,95.466693 76.95,90.2 C77.083334,89.199995 77.15,88.233338 77.15,87.3 C77.15,84.366652 76.4333405,82.0500085 75,80.35 C73.5666595,78.6499915 71.583346,77.233339 69.05,76.1 C68.583331,75.899999 67.616674,75.46667 66.15,74.8 C64.083323,73.933329 62.550005,73.16667 61.55,72.5 C60.549995,71.83333 60.05,70.933339 60.05,69.8 L60.05,69.3 C60.250001,68.099994 60.883328,67.100004 61.95,66.3 C63.016672,65.499996 64.149994,65.1 65.35,65.1 C66.68334,65.1 67.9333275,65.4166635 69.1,66.05 C70.2666725,66.6833365 71.283329,67.499995 72.15,68.5 L79.45,60.4 Z M89.55,56.9 L103.55,56.9 L99.35,83.5 C99.016665,85.300009 98.85,86.86666 98.85,88.2 C98.85,90.466678 99.3333285,92.299993 100.3,93.7 C101.266672,95.100007 102.949988,95.8 105.35,95.8 C107.016675,95.8 108.449994,95.433337 109.65,94.7 C110.850006,93.966663 111.816663,93.0166725 112.55,91.85 C113.283337,90.6833275 113.866665,89.400007 114.3,88 C114.733336,86.599993 115.083332,85.100008 115.35,83.5 L119.55,56.9 L133.55,56.9 L128.95,85.8 C126.616655,100.333406 118.150073,107.6 103.55,107.6 C90.816603,107.6 84.45,102.133388 84.45,91.2 C84.45,89.533325 84.616665,87.733343 84.95,85.8 L89.55,56.9 Z M157.35,56.9 L156.65,61.4 C158.516676,59.466657 160.749987,57.966672 163.35,56.9 C165.950013,55.833328 168.549987,55.3 171.15,55.3 C177.016696,55.3 181.599984,57.3499795 184.9,61.45 C188.200017,65.5500205 189.85,70.566637 189.85,76.5 C189.85,78.100008 189.716668,79.666659 189.45,81.2 C188.916664,84.600017 187.900008,87.8833175 186.4,91.05 C184.899992,94.2166825 182.966679,97.0499875 180.6,99.55 C178.233322,102.050013 175.516682,104.01666 172.45,105.45 C169.383318,106.883341 166.116684,107.6 162.65,107.6 C160.049987,107.6 157.633345,107.050006 155.4,105.95 C153.166656,104.849995 151.516672,103.333343 150.45,101.4 L150.25,101.4 L145.45,132.2 L131.35,132.2 L143.35,56.9 L157.35,56.9 Z M161.45,95.2 C163.183342,95.2 164.833326,94.800004 166.4,94 C167.966675,93.199996 169.36666,92.13334 170.6,90.8 C171.83334,89.46666 172.849996,87.9833415 173.65,86.35 C174.450004,84.7166585 174.983332,83.066675 175.25,81.4 C175.383334,80.599996 175.45,79.800004 175.45,79 C175.45,75.866651 174.600009,73.200011 172.9,71 C171.199992,68.799989 168.850015,67.7 165.85,67.7 C164.116658,67.7 162.466675,68.0833295 160.9,68.85 C159.333326,69.6166705 157.93334,70.66666 156.7,72 C155.466661,73.33334 154.450004,74.8166585 153.65,76.45 C152.849996,78.0833415 152.316668,79.733325 152.05,81.4 C151.916666,82.200004 151.85,82.999996 151.85,83.8 C151.85,86.933349 152.699992,89.6166555 154.4,91.85 C156.100009,94.0833445 158.449985,95.2 161.45,95.2 Z M239.15,83.7 L206.85,83.7 C206.649999,84.966673 206.55,86.133328 206.55,87.2 C206.55,90.000014 207.183327,92.3166575 208.45,94.15 C209.716673,95.9833425 211.716653,96.9 214.45,96.9 C216.650011,96.9 218.616658,96.300006 220.35,95.1 C222.083342,93.899994 223.61666,92.266677 224.95,90.2 L237.55,92.3 C235.083321,97.100024 231.650022,100.849986 227.25,103.55 C222.849978,106.250013 218.050026,107.6 212.85,107.6 C206.249967,107.6 201.116685,105.733352 197.45,102 C193.783315,98.266648 191.95,93.300031 191.95,87.1 C191.95,85.433325 192.083332,83.700009 192.35,81.9 C193.616673,74.099961 196.699976,67.7166915 201.6,62.75 C206.500025,57.7833085 212.749962,55.3 220.35,55.3 C226.950033,55.3 231.86665,57.1499815 235.1,60.85 C238.33335,64.5500185 239.95,69.466636 239.95,75.6 C239.95,77.666677 239.783335,79.799989 239.45,82 L239.15,83.7 Z M208.65,75 L227.35,75 C227.35,72.199986 226.68334,69.8500095 225.35,67.95 C224.01666,66.0499905 222.116679,65.1 219.65,65.1 C216.98332,65.1 214.683343,66.066657 212.75,68 C210.816657,69.933343 209.450004,72.266653 208.65,75 Z M263.95,56.9 L263.15,62 L263.35,62 C266.950018,57.533311 271.349974,55.3 276.55,55.3 C278.350009,55.3 280.216657,55.699996 282.15,56.5 L278.45,69.5 C276.916659,68.299994 275.083344,67.7 272.95,67.7 C270.616655,67.7 268.650008,68.1499955 267.05,69.05 C265.449992,69.9500045 264.166672,71.1833255 263.2,72.75 C262.233329,74.3166745 261.483336,76.0166575 260.95,77.85 C260.416664,79.6833425 259.983335,81.699989 259.65,83.9 L256.15,106 L242.15,106 L249.95,56.9 L263.95,56.9 Z M306.25,21.2 L292.85,106 L278.85,106 L292.25,21.2 L306.25,21.2 Z M310.25,56.9 L324.25,56.9 L320.05,83.5 C319.716665,85.300009 319.55,86.86666 319.55,88.2 C319.55,90.466678 320.033329,92.299993 321,93.7 C321.966671,95.100007 323.649988,95.8 326.05,95.8 C327.716675,95.8 329.149994,95.433337 330.35,94.7 C331.550006,93.966663 332.516663,93.0166725 333.25,91.85 C333.983337,90.6833275 334.566665,89.400007 335,88 C335.433335,86.599993 335.783332,85.100008 336.05,83.5 L340.25,56.9 L354.25,56.9 L349.65,85.8 C347.316655,100.333406 338.850073,107.6 324.25,107.6 C311.516603,107.6 305.15,102.133388 305.15,91.2 C305.15,89.533325 305.316665,87.733343 305.65,85.8 L310.25,56.9 Z M378.05,56.9 L364.05,56.9 L356.25,106 L370.25,106 L374.05,81.9 L374.15,81.2 C374.416668,79.333324 374.733332,77.633341 375.1,76.1 C375.466668,74.566659 375.999997,73.0500075 376.7,71.55 C377.400004,70.0499925 378.333327,68.833338 379.5,67.9 C380.666673,66.966662 382.149991,66.5 383.95,66.5 C385.883343,66.5 387.23333,67.133327 388,68.4 C388.76667,69.666673 389.15,71.333323 389.15,73.4 C389.15,74.933341 388.916669,77.166652 388.45,80.1 L388.25,81.1 L384.35,106 L398.35,106 L402.15,81.9 L402.15,81.7 C402.483335,79.833324 402.816665,78.133341 403.15,76.6 C403.483335,75.066659 404.016663,73.5166745 404.75,71.95 C405.483337,70.3833255 406.449994,69.0833385 407.65,68.05 C408.850006,67.0166615 410.349991,66.5 412.15,66.5 C414.016676,66.5 415.349996,67.1166605 416.15,68.35 C416.950004,69.5833395 417.35,71.233323 417.35,73.3 C417.35,74.766674 417.116669,76.83332 416.65,79.5 C416.583333,79.833335 416.55,80.066666 416.55,80.2 L412.45,106 L426.45,106 L431.35,75.4 C431.683335,73.066655 431.85,70.933343 431.85,69 C431.85,64.733312 430.85001,61.3833455 428.85,58.95 C426.84999,56.5166545 423.51669,55.3 418.85,55.3 C415.983319,55.3 413.150014,55.9833265 410.35,57.35 C407.549986,58.7166735 405.216676,60.599988 403.35,63 C401.016655,57.866641 396.716698,55.3 390.45,55.3 C388.183322,55.3 385.866679,55.8166615 383.5,56.85 C381.133321,57.8833385 379.150008,59.366657 377.55,61.3 L377.35,61.3 L378.05,56.9 Z M458.95,56.9 L444.95,56.9 L437.15,106 L451.15,106 L458.95,56.9 Z M456.55,28 C454.216655,28 452.116676,28.8166585 450.25,30.45 C448.383324,32.0833415 447.250002,34.033322 446.85,36.3 L446.85,37 C446.783333,37.200001 446.75,37.399999 446.75,37.6 C446.75,39.60001 447.41666,41.26666 448.75,42.6 C450.08334,43.93334 451.783323,44.6 453.85,44.6 C456.183345,44.6 458.283324,43.800008 460.15,42.2 C462.016676,40.599992 463.116665,38.633345 463.45,36.3 C463.45,36.099999 463.483333,35.900001 463.55,35.7 L463.55,35 C463.55,32.99999 462.900007,31.33334 461.6,30 C460.299994,28.66666 458.616677,28 456.55,28 Z M483.55,56.9 L469.55,56.9 L461.75,106 L475.75,106 L479.65,81.7 C479.916668,79.633323 480.249998,77.8166745 480.65,76.25 C481.050002,74.6833255 481.616663,73.1500075 482.35,71.65 C483.083337,70.1499925 484.11666,68.9166715 485.45,67.95 C486.78334,66.9833285 488.44999,66.5 490.45,66.5 C492.716678,66.5 494.316662,67.099994 495.25,68.3 C496.183338,69.500006 496.65,71.133323 496.65,73.2 C496.65,74.466673 496.416669,76.499986 495.95,79.3 L495.85,80 L491.75,106 L505.75,106 L510.55,76 C510.883335,73.733322 511.05,71.666676 511.05,69.8 C511.05,65.266644 509.933345,61.7166795 507.7,59.15 C505.466656,56.5833205 501.816692,55.3 496.75,55.3 C494.08332,55.3 491.550012,55.799995 489.15,56.8 C486.749988,57.800005 484.716675,59.333323 483.05,61.4 L482.85,61.4 L483.55,56.9 Z M569.95,56.9 L562.15,106 L548.35,106 L549.05,101.5 L548.85,101.5 C547.049991,103.433343 544.883346,104.933328 542.35,106 C539.816654,107.066672 537.250013,107.6 534.65,107.6 C528.64997,107.6 524.000016,105.550021 520.7,101.45 C517.399983,97.3499795 515.75,92.30003 515.75,86.3 C515.75,84.633325 515.883332,82.933342 516.15,81.2 C516.683336,77.933317 517.716659,74.7500155 519.25,71.65 C520.783341,68.5499845 522.716655,65.766679 525.05,63.3 C527.383345,60.833321 530.049985,58.8833405 533.05,57.45 C536.050015,56.0166595 539.249983,55.3 542.65,55.3 C545.250013,55.3 547.683322,55.833328 549.95,56.9 C552.216678,57.966672 554.049993,59.49999 555.45,61.5 L556.15,56.9 L569.95,56.9 Z M539.75,95.2 C541.483342,95.2 543.149992,94.800004 544.75,94 C546.350008,93.199996 547.76666,92.13334 549,90.8 C550.23334,89.46666 551.249996,87.9833415 552.05,86.35 C552.850004,84.7166585 553.383332,83.066675 553.65,81.4 C553.783334,80.599996 553.85,79.800004 553.85,79 C553.85,75.933318 552.983342,73.2833445 551.25,71.05 C549.516658,68.8166555 547.150015,67.7 544.15,67.7 C542.416658,67.7 540.766675,68.0833295 539.2,68.85 C537.633326,69.6166705 536.23334,70.66666 535,72 C533.76666,73.33334 532.750004,74.8166585 531.95,76.45 C531.149996,78.0833415 530.616668,79.733325 530.35,81.4 C530.216666,82.200004 530.15,82.999996 530.15,83.8 C530.15,86.933349 530.999991,89.6166555 532.7,91.85 C534.400009,94.0833445 536.749985,95.2 539.75,95.2 Z M594.05,56.9 L580.05,56.9 L572.25,106 L586.25,106 L589.75,83.9 C590.083335,81.699989 590.516664,79.6833425 591.05,77.85 C591.583336,76.0166575 592.333328,74.3166745 593.3,72.75 C594.266672,71.1833255 595.549992,69.9500045 597.15,69.05 C598.750008,68.1499955 600.716655,67.7 603.05,67.7 C605.183344,67.7 607.016659,68.299994 608.55,69.5 L612.25,56.5 C610.316657,55.699996 608.450009,55.3 606.65,55.3 C601.449974,55.3 597.050018,57.533311 593.45,62 L593.25,62 L594.05,56.9 Z" fill="black"></path>
        </g>
    </g>
</svg>